<?xml version="1.0" ?><svg viewBox="0 0 24 24" xmlns="http://www.w3.org/2000/svg"><g data-name="23. Help" id="_23._Help"><path d="M12,0A12,12,0,1,0,24,12,12.013,12.013,0,0,0,12,0Zm0,22A10,10,0,1,1,22,12,10.011,10.011,0,0,1,12,22Z"/><path d="M12.717,5.063A4,4,0,0,0,8,9a1,1,0,0,0,2,0,2,2,0,0,1,2.371-1.967,2.024,2.024,0,0,1,1.6,1.595,2,2,0,0,1-1,2.125A3.644,3.644,0,0,0,11,14a.965.965,0,0,0,1,.957,1.039,1.039,0,0,0,1-1.044,1.646,1.646,0,0,1,.93-1.408,4,4,0,0,0-1.213-7.442Z"/><path d="M12.02,17h-.01a1.005,1.005,0,1,0,.01,0Z"/></g></svg>