<?xml version="1.0" encoding="UTF-8"?>
<!DOCTYPE svg PUBLIC "-//W3C//DTD SVG 1.1//EN" "http://www.w3.org/Graphics/SVG/1.1/DTD/svg11.dtd">
<svg xmlns="http://www.w3.org/2000/svg" version="1.1" width="512px" height="512px" style="shape-rendering:geometricPrecision; text-rendering:geometricPrecision; image-rendering:optimizeQuality; fill-rule:evenodd; clip-rule:evenodd" xmlns:xlink="http://www.w3.org/1999/xlink">
<g><path style="opacity:0.975" fill="#000000" d="M 249.5,31.5 C 259.36,29.3496 266.527,32.6829 271,41.5C 271.667,56.1667 271.667,70.8333 271,85.5C 266.562,94.4633 259.395,97.63 249.5,95C 244.974,93.141 241.808,89.9744 240,85.5C 239.333,70.8333 239.333,56.1667 240,41.5C 242.022,36.98 245.189,33.6467 249.5,31.5 Z"/></g>
<g><path style="opacity:0.944" fill="#000000" d="M 104.5,91.5 C 109.655,90.8895 114.322,92.0562 118.5,95C 127.333,103.833 136.167,112.667 145,121.5C 150.771,135.964 146.105,144.631 131,147.5C 127.617,147.483 124.45,146.65 121.5,145C 112.667,136.167 103.833,127.333 95,118.5C 88.7189,106.177 91.8856,97.1766 104.5,91.5 Z"/></g>
<g><path style="opacity:0.948" fill="#000000" d="M 398.5,91.5 C 413.981,91.8007 420.481,99.4673 418,114.5C 409.567,124.936 400.401,134.769 390.5,144C 379.077,150.412 370.244,147.912 364,136.5C 362.932,131.232 363.599,126.232 366,121.5C 375.167,112.333 384.333,103.167 393.5,94C 395.315,93.2432 396.981,92.4098 398.5,91.5 Z"/></g>
<g><path style="opacity:0.983" fill="#000000" d="M 239.5,127.5 C 293.889,123.779 336.055,144.446 366,189.5C 384.265,221.694 388.599,255.694 379,291.5C 361.55,343.618 325.717,374.118 271.5,383C 216.832,387.693 174.665,367.193 145,321.5C 126.74,289.342 122.407,255.342 132,219.5C 149.618,167.371 185.452,136.704 239.5,127.5 Z M 255.5,160.5 C 297.151,161.991 326.651,181.658 344,219.5C 359.094,264.873 348.261,302.706 311.5,333C 294.72,344.371 276.22,350.538 256,351.5C 255.5,287.834 255.333,224.168 255.5,160.5 Z"/></g>
<g><path style="opacity:0.975" fill="#000000" d="M 41.5,239.5 C 56.1705,239.333 70.8371,239.5 85.5,240C 94.4822,244.473 97.6489,251.64 95,261.5C 93.1667,266 90,269.167 85.5,271C 69.7658,271.953 54.0991,271.62 38.5,270C 31.0088,263.006 29.5088,254.84 34,245.5C 36.1337,242.847 38.6337,240.847 41.5,239.5 Z"/></g>
<g><path style="opacity:0.975" fill="#000000" d="M 425.5,239.5 C 440.17,239.333 454.837,239.5 469.5,240C 478.482,244.473 481.649,251.64 479,261.5C 477.167,266 474,269.167 469.5,271C 453.766,271.953 438.099,271.62 422.5,270C 415.009,263.006 413.509,254.84 418,245.5C 420.134,242.847 422.634,240.847 425.5,239.5 Z"/></g>
<g><path style="opacity:0.947" fill="#000000" d="M 125.5,363.5 C 140.793,362.294 147.96,369.294 147,384.5C 146,386.5 145,388.5 144,390.5C 135.833,398.667 127.667,406.833 119.5,415C 108.854,421.738 100.021,419.904 93,409.5C 91,404.833 91,400.167 93,395.5C 103.064,383.935 113.898,373.268 125.5,363.5 Z"/></g>
<g><path style="opacity:0.949" fill="#000000" d="M 374.5,363.5 C 379.777,362.931 384.777,363.765 389.5,366C 398.333,374.833 407.167,383.667 416,392.5C 422.169,406.497 417.835,415.497 403,419.5C 399.284,418.958 395.784,417.791 392.5,416C 382.266,406.436 372.766,396.269 364,385.5C 361.89,375.389 365.39,368.056 374.5,363.5 Z"/></g>
<g><path style="opacity:0.975" fill="#000000" d="M 249.5,415.5 C 259.36,413.35 266.527,416.683 271,425.5C 271.667,440.167 271.667,454.833 271,469.5C 266.562,478.463 259.395,481.63 249.5,479C 244.974,477.141 241.808,473.974 240,469.5C 239.333,454.833 239.333,440.167 240,425.5C 242.022,420.98 245.189,417.647 249.5,415.5 Z"/></g>
</svg>
