<?xml version="1.0" ?><svg viewBox="0 0 24 24" xmlns="http://www.w3.org/2000/svg"><g data-name="12. Settings" id="_12._Settings"><path d="M12,0A12,12,0,1,0,24,12,12.013,12.013,0,0,0,12,0Zm0,22A10,10,0,1,1,22,12,10.011,10.011,0,0,1,12,22Z"/><path d="M18,7H12.816A2.982,2.982,0,0,0,7.184,7H6A1,1,0,0,0,6,9H7.184a2.982,2.982,0,0,0,5.632,0H18a1,1,0,0,0,0-2ZM10,9a1,1,0,1,1,1-1A1,1,0,0,1,10,9Z"/><path d="M18,15H16.816a2.982,2.982,0,0,0-5.632,0H6a1,1,0,0,0,0,2h5.184a2.982,2.982,0,0,0,5.632,0H18a1,1,0,0,0,0-2Zm-4,2a1,1,0,1,1,1-1A1,1,0,0,1,14,17Z"/></g></svg>