<svg xmlns="http://www.w3.org/2000/svg" xmlns:xlink="http://www.w3.org/1999/xlink" id="Layer_1" x="0" y="0" version="1.1" viewBox="0 0 50 50" xml:space="preserve" style="enable-background:new 0 0 50 50"><style type="text/css">.st0{opacity:.5;enable-background:new}.st0,.st1{fill:#fff}</style><g id="toggle_x5F_1"><path d="M25.1,13.6h17.1c2.1,0,3.7-1.7,3.7-3.7l0,0c0-2.1-1.7-3.7-3.7-3.7H25.1c-2.1,0-3.7,1.7-3.7,3.7l0,0 C21.4,11.9,23,13.6,25.1,13.6z" class="st0"/><path d="M7.7,28.7h34.4c2.1,0,3.7-1.7,3.7-3.7l0,0c0-2.1-1.7-3.7-3.7-3.7H7.7C5.6,21.3,4,23,4,25l0,0 C4,27,5.7,28.7,7.7,28.7z" class="st1"/><path d="M16.3,43.7h25.9c2.1,0,3.7-1.7,3.7-3.7l0,0c0-2.1-1.7-3.7-3.7-3.7H16.3c-2.1,0-3.7,1.7-3.7,3.7l0,0 C12.5,42,14.2,43.7,16.3,43.7z" class="st0"/></g></svg>