<?xml version="1.0" standalone="no"?>
<!DOCTYPE svg PUBLIC "-//W3C//DTD SVG 20010904//EN"
 "http://www.w3.org/TR/2001/REC-SVG-20010904/DTD/svg10.dtd">
<svg version="1.0" xmlns="http://www.w3.org/2000/svg"
 width="256.000000pt" height="256.000000pt" viewBox="0 0 256.000000 256.000000"
 preserveAspectRatio="xMidYMid meet">

<g transform="translate(0.000000,256.000000) scale(0.100000,-0.100000)"
fill="#000000" stroke="none">
<path d="M1016 2250 c-418 -66 -725 -355 -812 -764 -19 -91 -19 -280 0 -372
66 -310 265 -565 548 -699 141 -67 244 -89 408 -89 152 0 234 15 356 64 155
62 309 180 409 313 67 89 88 133 75 157 -20 38 -47 23 -100 -54 -27 -41 -53
-77 -58 -80 -5 -3 -27 24 -50 58 -134 204 -384 336 -634 336 -250 -1 -483
-124 -625 -331 l-48 -71 -27 33 c-44 52 -104 177 -134 274 -24 81 -27 106 -28
240 0 174 18 257 84 390 117 236 321 400 590 472 99 26 310 24 415 -4 151 -41
278 -111 392 -217 68 -63 105 -72 111 -27 8 51 -208 232 -354 297 -143 64
-374 96 -518 74z m315 -1235 c105 -27 203 -81 284 -157 70 -65 155 -178 155
-205 0 -22 -122 -111 -215 -157 -145 -72 -224 -91 -395 -91 -167 0 -247 18
-385 85 -82 39 -212 131 -221 155 -15 37 132 214 232 281 157 103 359 136 545
89z"/>
<path d="M1063 1945 c-159 -43 -265 -159 -295 -325 -48 -257 197 -499 458
-451 172 31 294 154 326 331 22 115 -23 252 -110 339 -103 103 -244 142 -379
106z m229 -93 c59 -26 127 -93 159 -157 20 -41 24 -65 24 -135 0 -101 -23
-159 -93 -228 -65 -65 -120 -87 -222 -87 -101 0 -159 23 -228 93 -166 166 -94
454 132 528 57 19 170 12 228 -14z"/>
<path d="M1703 1700 c-60 -36 -63 -51 -63 -342 0 -378 -20 -358 362 -358 288
0 297 2 335 59 23 33 23 40 23 301 0 261 0 268 -23 301 -38 57 -47 59 -337 59
-245 0 -267 -2 -297 -20z m565 -72 c17 -17 17 -519 0 -536 -17 -17 -519 -17
-536 0 -17 17 -17 519 0 536 17 17 519 17 536 0z"/>
<path d="M1857 1503 c-18 -17 -3 -51 40 -95 l47 -48 -48 -49 c-54 -55 -61 -93
-17 -99 17 -3 36 9 72 44 l49 48 49 -48 c36 -35 55 -47 72 -44 44 6 37 44 -17
99 l-48 49 48 49 c35 36 47 55 44 72 -6 44 -44 37 -99 -17 l-49 -48 -48 47
c-44 43 -78 58 -95 40z"/>
</g>
</svg>
