<svg width="7" height="8" viewBox="0 0 7 8" fill="none" xmlns="http://www.w3.org/2000/svg">
<path d="M6.79983 1.24741C6.69686 1.14425 6.52977 1.14408 6.4268 1.24697L3.26185 4.40356L2.11995 3.16334C2.02128 3.05624 1.85446 3.04929 1.74717 3.14795C1.63997 3.24662 1.63311 3.41353 1.73178 3.52073L3.05967 4.96285C3.08373 4.989 3.11282 5.01001 3.14521 5.02463C3.1776 5.03924 3.2126 5.04715 3.24813 5.04789C3.25005 5.04797 3.25191 5.04797 3.25376 5.04797C3.32357 5.04795 3.39054 5.02028 3.44001 4.97103L6.79931 1.62053C6.90255 1.51765 6.90273 1.35056 6.79983 1.24741Z" fill="#03A026"/>
<path d="M6.73617 3.5267C6.59046 3.5267 6.47236 3.6448 6.47236 3.79053C6.47236 5.42955 5.13903 6.76289 3.5 6.76289C1.86107 6.76289 0.527639 5.42955 0.527639 3.79053C0.527639 2.1516 1.86107 0.818166 3.5 0.818166C3.64571 0.818166 3.76383 0.700068 3.76383 0.554354C3.76383 0.408625 3.64571 0.290527 3.5 0.290527C1.57008 0.290527 0 1.86061 0 3.79053C0 5.72037 1.57008 7.29053 3.5 7.29053C5.42984 7.29053 7 5.72037 7 3.79053C7 3.64481 6.8819 3.5267 6.73617 3.5267Z" fill="#03A026"/>
</svg>
