<?xml version="1.0" ?><svg data-name="Layer 1" height="200" id="Layer_1" viewBox="0 0 200 200" width="200" xmlns="http://www.w3.org/2000/svg"><title/><path d="M145,17.5H90a30.09,30.09,0,0,0-30,30H55a30.09,30.09,0,0,0-30,30v75a30.09,30.09,0,0,0,30,30h55a30.09,30.09,0,0,0,30-30h5a30.09,30.09,0,0,0,30-30v-75a30.09,30.09,0,0,0-30-30Zm-25,135a10,10,0,0,1-10,10H55a10,10,0,0,1-10-10v-75a10,10,0,0,1,10-10h55a10,10,0,0,1,10,10Zm35-30a10,10,0,0,1-10,10h-5v-55a30.09,30.09,0,0,0-30-30H80a10,10,0,0,1,10-10h55a10,10,0,0,1,10,10v75Zm-55,10H65a10,10,0,0,0,0,20h35a10,10,0,0,0,0-20Zm0-30H65a10,10,0,0,0,0,20h35a10,10,0,0,0,0-20Z"/></svg>