<?xml version="1.0" ?><svg data-name="Layer 1" height="200" id="Layer_1" viewBox="0 0 200 200" width="200" xmlns="http://www.w3.org/2000/svg"><title/><path d="M184.52,68l-20-35a30,30,0,0,0-26-15h-77C51,18,41,24,35.52,33l-20,35c-6.5,11-5,24.5,3,34.5l58.5,69c12,14,34,14,45.5,0l58.5-69c8.5-10,10-23.5,3.5-34.5ZM166,89.5,107.52,158c-4,4.5-11.5,4.5-15,0L34,89.5c-3-3-3-8-1-11.5L53,43a10.31,10.31,0,0,1,8.5-5h77a9.68,9.68,0,0,1,8.5,5l20,35A9.85,9.85,0,0,1,166,89.5ZM135,73H65a10,10,0,1,0,0,20h70a10,10,0,0,0,0-20Z"/></svg>